<svg width="22" height="20" viewBox="0 0 22 20" fill="none" xmlns="http://www.w3.org/2000/svg">
<path d="M2.34091 6.90909L5.47727 12.2614L8.61364 6.90909H10.9318L6.70455 13.4545L10.9318 20H8.61364L5.47727 14.9205L2.34091 20H0.0227273L4.18182 13.4545L0.0227273 6.90909H2.34091ZM13.1541 11.2727V9.94318L17.1428 6.39773C17.5405 6.04545 17.8729 5.73011 18.1399 5.4517C18.407 5.1733 18.6087 4.90341 18.745 4.64204C18.8814 4.38068 18.9496 4.10227 18.9496 3.80682C18.9496 3.29545 18.7536 2.8892 18.3615 2.58807C17.9695 2.28693 17.4837 2.13636 16.9041 2.13636C16.2905 2.13636 15.7962 2.30114 15.4212 2.63068C15.0462 2.95455 14.8587 3.38068 14.8587 3.90909H13.0859C13.0859 2.9375 13.4467 2.15625 14.1683 1.56534C14.8899 0.96875 15.8132 0.670454 16.9382 0.670454C17.6882 0.670454 18.3473 0.806818 18.9155 1.07954C19.4837 1.34659 19.9268 1.71591 20.245 2.1875C20.5632 2.65341 20.7223 3.18182 20.7223 3.77273C20.7223 4.23864 20.6286 4.67045 20.4411 5.06818C20.2536 5.46591 19.9609 5.87784 19.5632 6.30398C19.1655 6.73011 18.6541 7.21591 18.0291 7.76136L15.8132 9.70455V9.77273H21.0291V11.2727H13.1541Z" fill="#B0C0C1"/>
</svg>
