<svg width="24" height="19" viewBox="0 0 24 19" fill="none" xmlns="http://www.w3.org/2000/svg">
<path d="M10.9333 14.4667L14.6667 10.7333L18.4 14.4667L19.8333 13.0333L16.0667 9.33333L19.7667 5.63333L18.3333 4.2L14.6667 7.93333L10.9333 4.2L9.5 5.63333L13.2667 9.33333L9.5 13.0333L10.9333 14.4667ZM0 9.33333L5.63333 1.36667C5.92222 0.966667 6.26667 0.638889 6.66667 0.383333C7.06667 0.127778 7.51111 0 8 0H22C22.5556 0 23.0278 0.194444 23.4167 0.583333C23.8056 0.972222 24 1.44444 24 2V16.6667C24 17.2222 23.8056 17.6944 23.4167 18.0833C23.0278 18.4722 22.5556 18.6667 22 18.6667H8C7.51111 18.6667 7.06667 18.5389 6.66667 18.2833C6.26667 18.0278 5.92222 17.7 5.63333 17.3L0 9.33333ZM2.5 9.33333L7.63333 16.6667H22V2H7.63333L2.5 9.33333ZM22 9.33333V2V16.6667V9.33333Z" fill="#B0C0C1"/>
</svg>
